<?xml version="1.0" encoding="UTF-8"?>
<svg id="Layer_1" xmlns="http://www.w3.org/2000/svg" viewBox="0 0 359.86 146.24">
  <defs>
    <style>
      .cls-1 {
        fill: #fff;
      }
    </style>
  </defs>
  <path d="M207.9,98.2c1.81-.38,3.34-.67,4.86-1.03.4-.1.95-.33,1.08-.65,1.29-3.21,4.4-4.1,7.03-5.58,3.33-1.88,6.6-1.26,9.8.35.51.26.9.8,1.27,1.27.78,1.02,1.51,2.08,2.33,3.24v2.82c-.27.22-.67.54-1.1.89.37,1.19.73,2.33,1.13,3.59-1.29.49-2.41.47-3.26-.41-.69-.71-1.12-1.66-1.89-2.85-.63,1.66.17,2.48.73,3.21.55.72,1.41,1.21,2.14,1.81-1.24,1.78-2.22,3.55-4.67,2.69-.15-.05-.4-.04-.51.05-2.42,2-5.05.76-7.65.64-2.11-.09-4.19-.33-6.27-.78-.07.17-.15.34-.22.52.68.5,1.36,1,2.09,1.55-1.2.77-2.3,1.47-3.43,2.2-1.09-.36-2.36-.77-3.62-1.19-.08.19-.16.37-.24.56.68.45,1.36.91,2.06,1.38q-1.43,1.22-3.57-.3c-.16.41-.3.78-.45,1.17-1.61,0-3.06-.37-4.41-1.38-.89-.67-2-1.18-3.09-1.43-3.96-.91-5.93-3.78-7.41-7.19-.59-1.36-1-2.85-1.83-4.04-2.19-3.11-1.35-6.52-1.29-9.87,0-.34.11-.72.3-.99,2.05-2.99,4.09-6,6.23-8.92.36-.49,1.18-.69,1.83-.89,1.15-.36,1.85-.95,1.64-2.28-.22-1.37-.03-2.56,1.24-3.47.38-.27.27-1.14.54-1.65.59-1.12,1.18-2.26,1.96-3.24.27-.34,1.12-.25,1.7-.28.84-.04,1.69-.01,2.55-.01.06-.46.17-.73.11-.96-.08-.32-.27-.62-.47-1.04-1.71.26-3.38.51-5.05.76-.06-.16-.11-.33-.17-.49.37-.26.79-.47,1.11-.78.73-.71,1.59-1.36,2.09-2.22.53-.9-.03-1.74-1.04-1.92-.56-.1-1.52-.04-1.62-.3-.4-1.15-1.8-1.52-1.87-3.03-.07-1.49-.86-2.95-1.43-4.74.36-.28,1-.79,1.65-1.3-2.31-.51-3.27-.89-3.04-4.71-1.43-.09-2.87-.17-4.47-.27v2.49c-1.78.52-3.43,1.01-5.08,1.47-.41.12-.87.25-1.28.2-3.3-.38-6.6-.72-9.78-1.85-2.65-.95-4.05-2.98-5.13-5.32-.67-1.46-.48-2.81.84-4,1.18-1.06,1.77-3.01,4.15-1.88-.08-.96-.12-1.6-.16-2.1,1.43.29,2.82.57,4.32.87.19-.85.31-1.37.43-1.89.18-.12.37-.23.55-.35.32.51.54,1.15.99,1.51.71.57,1.52,1.05,2.36,1.41,1.04.45,2.14.74,3.23,1.08,3.43,1.06,6.72,1.32,9.56-1.5.61-.61,1.4-1.06,2.14-1.53,1.91-1.22,2.04-1.61.71-3.49-.81-1.14-1.68-2.26-2.63-3.28-1.69-1.82-2.16-4.13-2.74-6.4-.5-1.94-.78-3.95-1.5-5.8-.96-2.48-.7-4.65.95-6.63.99-1.18,1.72-2.91,3.48-3.01,2.25-.13,4.58-.18,6.77.27,1.39.29,2.59,1.54,4.05,2.48.59.89,1.42,1.97,2.06,3.15.44.82.78,1.77.89,2.69.31,2.52.49,5.06.71,7.59.11,1.21.1,2.33-.22,3.58-.49,1.94-.31,4.04-.46,6.8,1.95-2.09,3.98-1.8,5.89-2.01,1.48-.16,2.88-.12,4.31.67,1.42.78,3.08,1.12,4.66,1.58,2.32.68,4.65,1.36,7.01,1.9.56.13,1.24-.28,2.06-.49.99.67,1.87,1.47,2.03,3.09.11,1.14.99,2.2,1.5,3.24-.39.44-1.02.87-1.23,1.45-.9,2.55-1.87,3.24-4.53,3.21-.85,0-1.72.2-2.55.43-3.9,1.08-7.2.08-10-2.77-.18-.19-.37-.38-.59-.52-.13-.08-.33-.06-.49-.09-.26,2.8-.9,3.12-3.83,1.64-1.36,2.54-2.03,5.1-1.15,7.97.31.99.46,2.02.78,3.01.65,1.99.53,3.72-1.24,5.14-.44.36-.66,1.03-.87,1.6-.44,1.18-.03,2.65-1.44,3.49-1.04.61-1.94,1.45-3.07,2.3-.06.59-.19,1.36-.22,2.13-.03.87-.19,1.5-.88,2.25-1.02,1.11-1.75,2.62-2.21,4.08-.73,2.32-1.39,4.64-1.34,7.19.04,2.42-.37,4.83.04,7.3.3,1.8.89,3.14,2.59,3.94.78.37,1.46.95,2.14,1.41v1.83ZM208.22,43.6c.79,1.24,1.58,1.51,2.8.67-.75-1.27-1.61-1.25-2.8-.67ZM221.52,103.28c.71-.99,1.15-1.6,1.75-2.44-2.39.18-2.43.22-1.75,2.44ZM218.21,105.09c-.78-.6-1.18-.95-1.63-1.2-.06-.03-.6.48-.56.67.16.86.74,1.03,2.19.52ZM211.49,102.09c.07.3.14.6.21.89.5-.11.99-.22,1.49-.34-.07-.29-.16-.84-.2-.84-.51.05-1,.17-1.51.28ZM203.32,69.43c0,.22,0,.44,0,.66.7.42,1.41.93,2.35-.52-1-.06-1.68-.1-2.36-.14ZM204.01,23.23c.15.17.3.33.46.5.83-.26,1.49-.69,1.62-2.24-.93.78-1.5,1.27-2.07,1.75ZM196.52,17.01c.46.23.73.44,1.03.47.14.02.33-.3.49-.47-.27-.19-.51-.44-.81-.54-.12-.04-.35.25-.71.54ZM199.16,101.8c-1.16-.07-1.77-.11-2.84-.18.99,1.21,1.6,1.24,2.84.18ZM205.58,105.44c-.42.47-.67.75-.93,1.04.27.19.54.53.8.52.24,0,.58-.36.66-.62.05-.19-.26-.48-.53-.93ZM202.27,59.15c.36.23.64.54.91.54.21,0,.42-.39.62-.61-.33-.19-.65-.42-1-.54-.08-.03-.29.32-.53.61ZM207.3,103.21q-.76-1.08-1.67-.23c.65.09,1.16.16,1.67.23ZM203.84,29.32c.03.15.06.3.09.46.41-.1.83-.2,1.24-.31-.04-.15-.1-.42-.11-.42-.41.07-.81.17-1.21.27ZM196.85,95.7v-.49h-1.5v.49h1.5ZM204.75,100.3c-.38-.24-.61-.46-.87-.51-.13-.02-.32.28-.48.44.23.19.43.43.69.54.1.04.33-.23.66-.47ZM204.9,26.45c-.34-.04-.64-.09-.94-.08-.05,0-.1.26-.15.4.29.09.57.19.87.24.03,0,.11-.27.22-.56ZM186.01,48.22c.06-.18.11-.36.17-.54-.35-.07-.71-.14-1.06-.21-.03.11-.07.22-.1.32.33.14.66.28.99.42ZM204.34,111.3c-.12-.2-.23-.44-.26-.43-.22.07-.43.19-.64.3.08.12.16.34.22.33.22-.02.44-.12.68-.2Z"/>
  <path d="M132.65,93.08c.4-.19.8-.37,1.49-.7-.83-.44-1.38-.73-2.14-1.14.73-.79,1.37-1.48,2.16-2.34-.74-.36-1.32-.64-1.89-.92-.33-1.69,1.27-1.71,2.01-2.39-.07-.2-.09-.43-.17-.46-1.75-.63-3.3-1.37-2.83-3.73.07-.35-.4-.8-.58-1.23-1.69-4.01-.04-8.85,4.71-9.36.69-.07,1.38-.19,2.06-.35,2.55-.57,4.33.51,5.76,2.52.47.66.64,1.2.6,2.08-.06,1.14.28,2.42.82,3.45,1.15,2.18,1.23,2.56-.32,4.7.37.43.78.86,1.15,1.33.33.42.62.87.97,1.38-1.21,2.53-2.36,5.05-5.7,5.98.76.54,1.21.85,1.86,1.31-.8.35-1.41.61-2.05.89.22.28.44.56.81,1.03-.65.69-1.33,1.4-1.98,2.14-.35.4-.94.9-.88,1.27.38,2.4-1.54,3.76-2.37,5.6-.03.07-.03.15-.05.29,2.16,2.75,4.35,5.54,6.73,8.56,1.03.03,2.45.31,3.78.07,1.85-.34,3.14-1.67,4.13-3.26.56-.9,1.03-1.98,1.84-2.58,1.04-.76,1.64-1.67,1.82-2.83.21-1.31.91-2.06,2.17-2.39-.2-.36-.38-.68-.66-1.18.63-.13,1.18-.25,1.57-.33-.45-.29-1-.64-1.95-1.25,1.16-.6,1.79-.93,2.56-1.33-.11-.46-.24-.95-.4-1.6.78-.36,1.48-.68,1.75-1.9.36-1.58,1.57-2.95,2.33-4.46.3-.59.65-1.41.46-1.94-.52-1.49-.11-2.76.59-3.99.88-1.55.98-3.19.86-4.9-.24-3.26,1.16-6.02,2.86-8.62.43-.66,1.27-1.11,1.99-1.52,1.47-.82,2.97-1.6,4.51-2.29.51-.23,1.26-.36,1.74-.16,2.98,1.3,5.81,2.79,5.81,6.71,0,.23.03.49.14.68,1.4,2.44.08,4.55-.74,6.75-.31.83-1.51,1.43-.79,2.6.02.04-.58.61-.96.71-.38.11-.84-.05-1.26-.09-.1.19-.21.38-.31.56.61.17,1.22.34,1.91.53-1.25,1.82-1.47,3.29-1.34,5,.09,1.26-.7,2.58-1.13,3.98.39,1.18.87,2.59,1.35,4.03-.93.4-1.62.69-2.73,1.16,3.46.55,4.33,2.95,5.42,5.2,1.54,3.2,1.41,6.66,1.68,10.05.02.31.18.76.03.9-1.57,1.52-1.2,4.27-3.52,5.37-.6.29-.85,1.32-1.4,2.23-.24-.48-.42-.83-.68-1.34-.73.15-1.51.31-2.61.54.65.64,1.05,1.04,1.5,1.49-.28.42-.52.79-.78,1.17-1.17-.94-2.27-1.82-3.35-2.68-.62.51-1.16.95-1.96,1.6-.2-.92-.32-1.47-.46-2.09-.58-.14-1.17-.28-1.82-.44.03-.28-.03-.54.08-.69.38-.57.34-1.25-.28-1.31-1.37-.12-1.4-1.17-1.62-2.1-.84-.16-1.57-.3-2.82-.54,1.25-.86,2.14-1.48,3.03-2.09q-.96-.48-2.6-.13c.6-1.7,1.14-3.32,1.75-4.91.26-.67.71-1.33-.19-1.78-.74-.37-1.06.2-1.43.77-.37.56-.93.99-1.52,1.59.7,1.16.32,2.14-.84,3.04-.47.36-.63,1.11-1.01,1.83-.46-.14-1.1-.34-1.85-.57.15-.29.2-.52.35-.63.45-.36.94-.67,1.41-1-.07-.15-.14-.29-.22-.44-1.67.59-3.34,1.18-5.02,1.77.26,1.03.64,1.22,1.43.93.23-.08.67.41.89.57-1.12.95-2.05,1.65-2.87,2.46-.94.91-1.83,1.6-3.27,1.08-.49-.18-1.15.1-1.94.19q2.43,1.37.59,3.95-1.81-.12-2.33,1.58c-3.4.77-6.71.15-10.02-.7-.79-.2-1.64-.42-2.44-.35-2.67.24-3.69-.32-4.92-2.77-.29-.58-.85-1.38-1.34-1.43-1.4-.12-1.86-1.26-3.06-2.28.41-.26.79-.5,1.18-.75-.28-.75-.46-1.42-.77-2.02-.32-.59-.77-1.12-1.25-1.79.7-.49,1.3-.91,1.9-1.33-.39-1.51-1.57-.8-2.47-.77-.12-1.54.49-2.49,1.63-3.22,1.33-.85,2.24-1.93,1.97-3.69-.13-.86.43-1.45,1.23-1.76.64-.24,1.29-.44,2.31-.79-.84-.48-1.37-.78-1.95-1.11.02-.2-.04-.48.07-.63.32-.43.64-.95,1.08-1.18,1.69-.86,2.47-2.21,2.58-4.06.02-.36.31-.7.47-1.05l-.05.04ZM169.42,98.66c-1.04-.47-1.88,0-2.69.59-.31.33-.61.66-1.05,1.12,2.21,1.38,2.07,3.42,1.73,5.38.78.84,1.48,1.59,2.13,2.28.62-.7,1.2-1.36,1.77-2.01-.47-.6-.92-1.19-1.41-1.83.54-.54.95-.96,1.56-1.58-.58-.55-1.05-1.12-1.63-1.52-1-.68-2.08-1.25-3.11-1.86,1.03.33,2.07.66,3.4,1.09-.35-.74-.58-1.25-.82-1.76,2.46-.27,2.59-.38,2.55-2.21l-2.22.26c-.23-.87,1.26-1.58.08-2.27-.78-.45-1.45-.16-2.02.63.57,1.22,1.15,2.44,1.73,3.67ZM177.22,102.85c-1.34-1.09-2.62-.58-3.95-.15.82,1.85,1.63,1.87,3.95.15ZM174,91.46c-.5-1.27-1.27-1.34-2.24-1.07-.87.25-1.75.44-2.89.72,1.71,1.44,3.32.71,5.13.35ZM166.53,94.42c.16-.16.31-.31.47-.47-.2-.42-.3-1.12-.61-1.22-.92-.31-1.86-.19-2.85.92,1.19.31,2.09.54,2.99.76ZM174.64,116.05c.06.22.11.43.17.65.82.08,1.64.26,2.45.21.29-.02.54-.58.81-.9-.32-.24-.68-.72-.95-.68-.84.13-1.66.47-2.48.72ZM173.76,118.18q2.42,1.55,3.57.02c-1.12,0-2.14-.01-3.57-.02ZM136.56,111.28c1,.14,1.65.23,2.31.32.01-.41.21-1.02,0-1.2-.71-.67-1.37-.32-2.31.88ZM177.29,70.03c-.8-.59-1.5-.5-2.08.12-.13.14-.09.69.07.81.83.68,1.36-.02,1.91-.52.05-.04.04-.14.1-.42ZM140.39,120.29c.03-.18.05-.36.08-.54-.93.03-1.86.07-2.78.1,0,.08,0,.17,0,.25.9.06,1.81.13,2.71.19ZM170.29,88.34c.03-.17.06-.33.09-.5-.8-.15-1.6-.29-2.4-.44-.03.2-.06.41-.09.61l2.41.32ZM134.08,100.17c1.13.82,1.47.39,1.55-.91-.69.41-1.12.66-1.55.91ZM174.83,108.41c-.02-.17-.03-.33-.05-.5-.92.07-1.83.13-2.75.2.01.14.03.29.04.43.92-.04,1.84-.09,2.76-.13ZM132.75,115.37c-.18.1-.36.19-.54.29-.02.64.06,1.21,1.31,1.37-.34-.73-.56-1.2-.77-1.66ZM142.16,88.2l-1.78.44c.84.83,1.41.56,1.78-.44ZM129.55,109.98c-.11-.14-.22-.27-.32-.41-.4.31-.81.61-1.21.92.07.11.15.21.22.32.44-.28.88-.55,1.32-.83ZM168.96,117.29l-.03-.43c-.42.02-.85.04-1.27.05.02.17.03.35.05.52l1.26-.15ZM175.76,112.48c-.04-.19-.08-.39-.12-.58-.52.11-1.04.22-1.56.33.03.15.05.29.08.44l1.6-.19ZM173.73,114.52c-.04-.12-.08-.24-.13-.36-.34.11-.67.22-1.01.33.05.13.1.27.15.4.33-.12.66-.25.98-.37ZM179.48,114.4c.1.07.22.22.32.2.1-.01.25-.2.24-.3,0-.1-.19-.17-.3-.26-.08.11-.16.22-.26.36ZM176.08,82.15c.25-.52.35-.67.39-.85,0-.02-.25-.19-.34-.16-.17.06-.41.2-.42.32,0,.17.17.35.36.68ZM165.93,98.13c.13-.23.33-.43.28-.52-.09-.17-.29-.31-.47-.37-.07-.02-.34.29-.31.37.06.17.26.29.5.51ZM171.27,120.33c.15-.1.26-.16.37-.23-.14-.15-.26-.35-.43-.44-.07-.03-.26.18-.4.28.16.13.31.27.46.39ZM148.31,121.29c.08-.19.18-.37.2-.55,0-.06-.31-.22-.33-.2-.13.14-.21.32-.31.49.12.07.24.14.44.25ZM131.66,119.77c.28.2.43.35.61.41.07.02.32-.19.31-.23-.07-.18-.17-.41-.32-.48-.11-.05-.32.15-.59.29Z"/>
  <path d="M283.89,80.83c3.07.86,4.59,3.35,6.72,5.1.72.59,1.68.92,2.57,1.25.96.35,1.89.46,2.72-.49.28-.33.98-.33,1.5-.42,1.75-.29,3.58-.19,5.07-1.54.45-.41,1.37-.3,2.07-.41,1.5-.24,2.67-.81,3.42-2.3.49-.98,1.45-1.73,2.37-2.78-.46-.35-1.03-.89-1.69-1.29-1.94-1.15-2.02-1.45-1.41-3.56.29-.99.31-2.06.49-3.37.27-.02.85-.06,1.49-.1-.12-.41-.24-.8-.38-1.29.63-.57,1.19-1.37,1.95-1.73,1.99-.93,4.2-1.94,6.23-1.96,3.75-.04,3.86.4,6.58,3.58-.55,1.08-.56,2.09.21,3.35.76,1.26.13,2.8-.96,3.92-.3.31-.7.52-1.12.83.21.85.39,1.61.61,2.52-.37.23-.72.51-1.11.67-1.43.56-3.42.52-2.96,2.97-1.15.99-2.3,1.99-3.45,2.98-.56.71.81,1.95-.56,2.65-1.29.66-2.25,2.11-4.08,1.64-1.12-.29-2.33-.24-3.5-.31-.62-.04-1.25,0-1.96,0-.07.33-.17.58-.15.81.35,3.62.35,3.59-3.06,4.79-1.51.53-3,1.15-4.46,1.82-3.71,1.71-7.41,1.54-11.33.59-2.86-.69-5.56-1.35-7.82-3.37-.52-.46-1.48-.42-2.37-.64.17-.49.33-.96.54-1.61-.39-.02-.71-.07-1.03-.06q-2.36.09-2.44-2.26c-.01-.35.04-.89-.16-1.01-1.94-1.28-1.6-3.25-1.47-5.03-.92-.67-1.68-1.22-2.75-2,.96-.79,1.69-1.38,2.41-1.98.3-1.86-1.14-2.42-2.34-2.97-.13-2.22,2.06-1.45,3.05-2.62-1.36-.52-2.33-2.2-3.73.06-.86-1.53-1.58-2.81-2.38-4.24,1.05-.4,1.84-.7,2.76-1.05-2.2-1.28-2.21-1.28-2.68-3.98-.15-.89-.17-1.81-.38-2.68-.17-.68-.37-1.62-.86-1.9-2.29-1.3-2.03-3.52-2.02-5.5.01-2.78.47-5.36,2.53-7.73,2.42-2.78,4.14-6.17,6.25-9.23.86-1.26,2.14-1.92,3.75-1.69,1.23.18,2.46.33,3.77.25-1.41-.56-2.83-1.12-4.32-1.7.5-2.31,2.61-1.46,3.84-2.4-.04-.67-.09-1.43-.14-2.37.78,0,1.39-.06,1.99,0,1.83.17,3.51-.12,5.26-.86,4.62-1.96,9.4-3.15,14.48-1.78,1.12.3,1.75.82,2.28,1.97.9,1.96,2.26,3.7,3.53,5.7.31-1.81.43-3.32.89-4.72.2-.6,1.05-1.26,1.7-1.37.91-.16,1.59.38,1.93,1.46.71,2.23,1.77,4.25,3.5,5.98,1.74,1.75,3,3.83,2.23,6.59-.25.91-.02,1.96-.01,3.11-.95.3-1.78.57-2.64.84-1.12,2.79-3.51,4.13-6.17,5.02-.67.23-1.63,0-2.33-.31-1.46-.64-2.92-1.37-4.22-2.29-.55-.39-.82-1.31-1.02-2.04-.2-.73-.15-1.53-.21-2.44.39-.33.93-.79,1.69-1.45-2.06-1.08-.68-2.82-1.03-4.26-.34-1.4-1.71-2.62-.38-4.29-.67-.2-1.07-.33-1.69-.52-.15,1.09-.27,2.02-.44,3.27-1.03,0-2.01.1-2.97.01-3.88-.37-7.44.82-10.96,2.16-.48.18-1.09.53-1.24.95-.57,1.63-1.88,2.03-2.94,2.13-.3,1.25-.54,2.24-.9,3.73-.73-1.16-1.13-1.8-1.63-2.6-1.73,2.48-4.18,3.48-6.77,4.43,1.02-.05,2.04-.17,3.05-.13.37.02.98.37,1.03.65.08.45-.05,1.15-.37,1.43-.59.52-1.37.81-2.92,1.66,1.09.38,1.77.62,2.79.97-1.02.72-1.48,1.05-1.98,1.4,0,.03.04.18.09.32.24.71.59,1.41.69,2.15.17,1.26.11,2.57,1.76,2.93.33.07.76.3.89.58,1.18,2.55,3.6,3.97,5.31,6,1.83,2.16,3.07,4.85,4.34,7.42.42.85.25,2.05.19,3.08-.05.87-.34,1.73-.58,2.9ZM284.07,33.88c2.41.61,4.79.78,7.11.12.71-.2,1.24-1.02,1.86-1.55-.12-.25-.24-.5-.36-.74-2.52,2.64-5.8.92-8.61,2.18ZM281.5,92.15c.76-.76,1.35-1.36,1.95-1.95-.31.31-.62.63-.93.94-.55-1.26-1.09-2.52-1.7-3.91-1.41,2.63-1.14,3.93.68,4.92ZM272.38,76.71c1.15,1.04,2.29.74,3.88.19-.44-.72-.71-1.71-1.14-1.79-1.17-.21-2.18.33-2.74,1.59ZM312.78,76.61c-1.23-1.05-2.05-2.02-3.47-.79.87,1.2,1.79,1.58,3.47.79ZM280.73,82.3c-1.63-2.12-1.96-2.09-3.38-.14,1.17.05,2.27.09,3.38.14ZM286.99,89.69c1.08,2.19,1.12,2.2,3.07.85-1.21-.33-2.14-.59-3.07-.85ZM294.39,35.79c-.39-1.47-.99-1.55-2.07-.42.9.18,1.48.3,2.07.42ZM277.15,79.78c-.63-.38-1.09-.71-1.6-.9-.11-.04-.41.42-.62.65l1.42,1.22c.21-.25.41-.5.79-.96ZM266.27,59.17c-.81-.63-1.43-.72-2.17.1.81.85,1.42.76,2.17-.1ZM310.59,42.2q-1.28-1.54-2.54-.59c.87.2,1.56.36,2.54.59ZM278.11,88.62c-.58-.97-.92-1.54-1.26-2.11-.35.96-.34,1.72,1.26,2.11ZM302.54,91.95c.07-.3.13-.61.2-.91-.59-.13-1.19-.25-1.78-.38-.06.25-.13.5-.19.76.59.18,1.18.35,1.77.53ZM268.48,73.16c.12-.19.24-.38.36-.57-.32-.68-.73-1.17-2.03-.64.73.53,1.2.87,1.67,1.21ZM303.62,43.42c1.04.88,1.54,1.56,2.57.46-.82-.15-1.42-.25-2.57-.46ZM309.3,90.05c.22-.29.49-.49.46-.65-.03-.2-.3-.36-.47-.54-.16.17-.45.33-.46.51-.01.18.25.38.47.68ZM301.7,93.57c.23.08.45.23.67.21.1,0,.17-.34.25-.52-.23-.05-.46-.14-.69-.14-.06,0-.13.25-.22.45ZM275.83,42.47c.16-.02.33-.03.49-.05-.12-.17-.2-.38-.36-.5-.06-.05-.27.11-.42.17.09.13.19.25.28.38ZM273.3,64.47l-.14.41c.42.14.83.27,1.25.41.04-.14.08-.28.13-.41l-1.24-.41ZM297.9,95.17c-.13-.13-.23-.3-.34-.31-.13-.01-.27.11-.41.18.14.14.27.3.43.4.03.02.2-.18.32-.28Z"/>
  <g>
    <path d="M255.58,94.15c.75.56,1.5,1.11,2.38,1.76-.6.63-1.3,1.26-.94,2.51.18.66-.6,1.58-.96,2.4-.44-.07-.88-.14-1.71-.27.53.8.89,1.32,1.41,2.11-1.12.41-2.18.79-3.42,1.24.66.41,1.17.73,1.79,1.11-.24.19-.4.43-.56.43-.63-.02-1.26-.15-1.88-.16-.59,0-1.19.1-1.82.36,1.24.68,3.22-.06,3.57,2.21-.59.27-1.25.58-2.25,1.04,3.36,3.85,5.34,8.11,5.57,13.18.41.15.92.33,1.26.45.35,1.13.79,2.08.92,3.07.15,1.16.13,2.37-.02,3.53-.15,1.09-.55,2.15-.9,3.21-.12.35-.33.85-.61.95-1.34.47-1.87,1.64-2.59,2.69-.84,1.23-1.66,2.52-3.35,2.87-.54.11-.98.75-1.56,1.24-.59-.31-1.21-.63-1.83-.96-.46.32-.9.63-1.31.92-.32-.12-.57-.17-.75-.3-2.14-1.68-4.29-3.35-4.33-6.46,0-.35-.28-.73-.49-1.05-1.13-1.74-1.14-1.77,1.03-2.25.72-.16,1.18-.42,1.21-1.2,1.12.82,2.23,1.63,3.66,2.67-1.12-2.43-1.72-2.81-3.63-2.64h-2.3c.83-3.17,1.59-6.09,2.33-8.93.49-.64,1.96.56,1.82-1.1,0-.05.84-.24,1.29-.23.66.01,1.33.15,2.09.24-.16-1.69-1.66-.94-2.38-1.84,0-.25-.16-.8.03-1.15.83-1.56.71-3.01-.55-4.56.74-.12,1.23-.19,1.72-.27-.54-2.38-1.81-4.27-3.73-5.72.51-.82,1.03-1.38,1.21-2.03.21-.71,1-1.64-.33-2.23-.15-.07-.1-.68-.06-1.04.35-3.01.68-6.01.02-9.02-.07-.31-.01-.67-.15-.94-1.14-2.28-1.38-4.64-1.13-7.19.11-1.15.14-2.15.85-3.1.47-.63.95-1.33,1.16-2.08.71-2.5,3.14-2.3,4.85-3.22.12-.07.35-.07.47,0,1.47.82,2.76.16,4.26-.63.28,1.28.99,1.99,2.1,2.58,1.93,1.02,2.94,2.99,2.98,5.09.02,1.19.42,1.9,1,2.47-.07,1.35-.22,2.51-.15,3.65.09,1.56-.86,2.09-2.15,2.34q1.07,2.16-1.16,2.63c.2.34.39.66.77,1.33-1.03.13-1.91.24-2.78.34.12-2.71-.04-2.89-2.63-2.95.89.97,1.78,1.93,2.67,2.9ZM250.69,97.66c-1.08-.41-2.15-.81-3.23-1.22-.03-1.56,1.5-.9,2.27-1.45-.42-1.21-1.2-1.6-2.17-.99-1.02.65-.85,1.56-.04,2.37.61,1.52,1.86,1.44,3.15,1.27.43.15.85.33,1.29.42.16.03.36-.13.77-.3-.58-.48-1.01-.85-1.61-1.35-.19.57-.31.92-.44,1.24ZM251.2,101.07c.6.03,1.2.06,2.02.1-1-1.37-1.47-.61-1.98-.05-.71-.53-1.43-1.05-2.29-1.69.13.9.04,1.64.36,2.1.29.42,1.01.53,1.55.78.11-.41.22-.83.34-1.23ZM253.15,127.36c.7-.97,1.26-1.64,1.7-2.38.26-.44.58-1.11.42-1.49-.7-1.65-1.57-3.23-2.47-5.02-1.23.48-2.34.91-3.65,1.43,1.43.99,2.52,1.75,3.63,2.53-.23,1.66-1.04,3.3.37,4.94ZM249.55,123.52c.22-.75.37-1.26.55-1.85-2.14.18-4.02.33-6.21.52,1.82,1.91,3.94-.01,5.66,1.34ZM248.8,112.42c-.85,1.42-.75,1.65,1.35,3.24.38-.52.75-1.03,1.2-1.66-.96-.6-1.68-1.05-2.56-1.59ZM248.34,109.11c.95-.49,1.51-.64,1.85-1.01.22-.24.1-.79.14-1.2-.47.05-1.12-.07-1.37.19-.32.34-.32.98-.61,2.01ZM246.96,105.7c-.6-1.1-1.19-1.22-2.01-.68q.69.87,2.01.68ZM245.18,131.75c.45,1.88,1.69,1.54,3.02,1.57-1.06-.55-1.91-.99-3.02-1.57ZM248.07,88.66c.22-.32.49-.6.44-.68-.15-.23-.42-.39-.64-.58-.16.2-.49.45-.45.6.06.23.38.4.65.65ZM250.35,111.84c.13-.18.27-.35.4-.53-.36-.22-.73-.45-1.09-.67-.08.12-.24.33-.22.36.29.29.6.56.91.83ZM253.91,78c.07-.16.14-.34.21-.51-.13-.04-.33-.16-.39-.11-.14.11-.21.31-.32.47.13.04.27.08.49.15ZM250.93,83.39c-.1-.07-.24-.25-.31-.23-.15.05-.25.21-.37.33.14.06.28.18.41.17.1,0,.19-.18.28-.28Z"/>
    <path d="M244.42,62.76c.05-.12.09-.39.25-.54,1.35-1.23,2.01-2.78,2.4-4.53.33-1.47,1.68-2.28,3.02-1.8,2.07.75,4.19,1.39,6.01,2.72.8.58,1.03,1.11.49,1.98-.37.59-.88,1.25-.89,1.89-.04,1.94-.95,3.29-2.06,4.83-1.39,1.94-3.15,1.12-4.73,1.4-1.38.24-1.77-1.07-2.3-2.05-.66-1.23-1.36-2.43-2.2-3.91Z"/>
  </g>
  <g>
    <path d="M106.87,51.45c2.82-.84,5.35-.39,7.61,1.57.63.55,1.37.96,2.2,1.53.11,1.49.38,3.1.31,4.7-.09,2.06-.66,4.12-2.5,5.28-2.52,1.59-5.22,2.75-8.37,2.03-1.24-.28-2.53-.31-3.78-.52-1.45-.25-2.81-.68-3.05-2.55-.76-.11-1.54-.39-2.26-.29-1.78.27-3.34.64-4.83-1.11-.93-1.1-2.52-.37-4.1,1.45-.6-.17-1.24-.36-2-.58-.33.45-.66.9-1.05,1.43-2-1.02-3.82-1.26-5.85.33-1.12.87-2.96.84-4.51,1.23.1.5.18.88.27,1.31-3.68,1.21-7.34,2.4-11.16,3.65-.08,1.81-1.13,3.01-2.89,3.88-1.02.5-1.72,1.61-2.63,2.37-.67.56-1.03,1.64-2.27,1.34-.19-.04-.52.53-.78.81-.28.3-.51.74-.86.87-1.18.43-2.75.28-2.83,2.15-1.85.23-2.22,1.98-3.19,3.12-.5-.07-1.08,0-1.47-.25-1.64-.99-3-.25-4.58.52,1.48.35,2.76.63,4.03.95,1.14.29,1.76-.18,1.97-1.29.49.97.07,1.57-.75,2.12-1.2.8-2.45,1.58-3.49,2.57-.69.66-1.24,1.61-1.46,2.53-.12.5.55,1.2.83,1.75-2.73,2.42-6.02,3.13-9.74,2.28.97,1.17,2.37.69,3.42,1.17.61.28,1.3.9,1.47,1.5.23.82-.09,1.7-1.21,1.88-.28.05-.54.26-1.08.54.66.41,1.06.65,1.46.9-.07.11-.14.33-.22.33-1.09.03-2.2.18-3.27,0-1.53-.25-2.56.29-3.58,1.47,1.24,1.18,2,.38,2.81-.16.93-.61,1.73-.69,2.13.58-2.06,1.69-4.06,3.34-6.46,5.32-.7.07-2.02.19-3.34.31-.02.15-.04.3-.06.45.55.07,1.11.15,2.02.27-1.38,1.27-2.78,1.51-4.26,1.66-2.02.19-4.04.41-6.03.8-1.62.32-2.95.14-4.18-1.05-.49-.47-1.28-.7-1.98-.86-1.95-.47-2.9-1.91-2.56-4.06-.48-.15-.96-.3-1.43-.45-.05-.33-.17-.59-.12-.81.25-1.16.44-2.35.84-3.46.86-2.37.91-2.36-.93-4.12,1.12-1.73,3.03-.46,4.66-1.28-.68-.36-1.21-.65-1.89-1.02.62-1.37,1.7-1.94,3.15-2,3.48-.14,6.64-1.32,9.65-3,.81-.46,1.72-.75,2.53-1.2.64-.36,1.36-.74,1.79-1.3.97-1.3,2.19-1.75,3.76-1.62,2,.16,2.37-.09,3.53-2.14-1.33-1.35-2.42.9-3.68.3.91-1.37,3.37-2.65,5.2-2.88,1.16-.15,2.29-.51,3.43-.8.22-.06.58-.25.59-.4.14-2.19,1.9-1.37,2.81-1.93,1.03-.98,2.06-1.96,3.54-3.37.05-.44-.25-1.1-1.58-.9-.97.14-1.95.24-3.09.38.69-1.55,2.43-2.54,3.96-2.09,1.57.47,2.43.5,3.09-1.33.35-.96,1.8-1.47,2.55-2.36.69-.81,1.12-1.84,1.64-2.78.54-.96.94-2.03,1.61-2.88.57-.71.9-1.24.71-2.24-.11-.54.48-1.5,1.02-1.82,1.37-.81,2.03-1.94,2.11-3.52.86-.15,1.59-.27,2.56-.44-.75-1.67-.97-3.29-.36-5.12l2.3.11c.39-.93.25-1.6-.59-1.75-.81-.14-1.26-.38-1.19-1.27.07-.95.81-.95,1.46-1.12.15-.04.27-.18.59-.39-.31-.27-.59-.51-1-.87.45-.27.85-.52,1.45-.88-.59-.45-1.14-.88-1.92-1.47,1.63-2.51.34-6.13,3.46-8.19-.84-3.35.24-6.09,2.95-8.24.39-.31.82-.7.98-1.14,1.3-3.64,4.85-4.8,7.53-6.92,2.82-.02,5.37-1.63,8.44-.84,1.99.51,4.4.8,6.58-.8,1.08-.79,2.93-.71,4.43-.72,2.62-.02,5.26.42,7.81-.61.46-.18,1.03-.28,1.51-.19,2.17.42,4.03-.23,5.77-1.46.34-.24.78-.47,1.17-.46,1.29.02,2.23-.6,3.19-1.36,1.92-1.5,4.25-1.17,5.97.68.34.36.78.76,1.23.85,2.3.47,3.19,2.47,4.3,4.1.56.82.5,2.1.58,3.19.09,1.33.12,2.68,0,4.01-.07.81-.36,1.65-.74,2.37-.33.61-1.32.97-.4,1.87.09.08-.12.67-.34.83-.47.34-1.01.68-1.56.78-3.28.58-6.54.82-9.74-.59-.72-.32-1.7,0-2.49-.21-2.66-.72-5.3-1.56-7.89-2.55,2.32-.95,4.16,1.45,6.56.45-2.04-.86-4.05-1.78-6.12-2.56-.78-.3-.84-.15-2.32,1.23-1.44-.85-2.98-.91-4.57-.24-.44.19-1.01.05-1.51.13-1.38.22-2.75.47-4.63.79-.79-.15-2.17-.42-3.51-.68-.94,2.8-3.02,4.14-5.27,5.35-.63.34-1.17.83-1.71,1.31-.17.15-.16.6-.32.67-2.6,1.01-2.36,3.84-3.65,5.68-.58.82-.51.88-2.09.91.16-.49.3-.93.52-1.62-.93-.25-1.84-.49-2.7-.71-.26,1.46-.47,2.62-.68,3.81.95,1.14,1.81-.48,3.13-.03.12.61.28,1.41.44,2.21-.16.12-.32.25-.48.37-.69-.34-1.39-.68-2.27-1.11-.69.46-1.51.99-2.48,1.64,1.54,1.4,3.8-1.24,4.93,1.4-.09.22-.3.65-.46,1.11-.14.39-.44.9-.31,1.19.76,1.76,1.42,3.63,2.53,5.16.89,1.22,2.57,1.35,4.07,1.78,3.17.9,6.06.34,9.12-.4,2.01-.49,4.21-.21,6.32-.28.25,0,.55.08.75-.02,3.05-1.56,6.74-1.63,9.44-4.02q.14,1.41,2.04.29c-.87-.09-1.49-.16-2.11-.23ZM16.05,101.55c.44.79.72,1.71,1.34,2.27.62.56,1.55.86,2.39,1.05.33.07,1.17-.51,1.15-.71-.1-.78-.3-1.63-.75-2.25-.54-.74-1.31-1.27-2.41-.66-.52.29-1.24.23-1.71.3ZM73.51,47.97c-2.88-.88-3.73-.36-4.36,2.28,2.7,1.78,2.73-1.35,4.36-2.28ZM83.19,23.72c1.89.68,7.08.81,8.61.13-3.03-.27-5.64-1.56-8.61-.13ZM35.63,92.15c1.47,1.05,2.36.47,3.01-.45.27-.38.12-1.06.17-1.6-.52.06-1.15-.04-1.52.22-.62.45-1.06,1.14-1.66,1.83ZM32.01,93.76c1.61.35,2.96,2.19,5.12,1.25-1.52-1.53-3.31-1.35-5.12-1.25ZM69.41,44.79c-3.01-.87-3.17-.82-4.86,1.62,1.72-.57,3.01-1,4.86-1.62ZM70.95,32.33c-2.22-.38-2.72-.32-3.76.57-.28.24-.34.74-.62,1.4,1.54-.69,2.7-1.21,4.38-1.97ZM22.74,100.39c.01-.22.03-.44.04-.65-1.57.96-3.18-1.34-5.11.4l5.07.25ZM67.1,65.95c-1-.57-1.85-1.17-3.07-.74,1.26,1.64,1.33,1.66,3.07.74ZM29.36,102.01c1.13.68,1.96.66,3-.35-1.18-.35-2.05-.66-3,.35ZM114.19,61.99c-.06-.2-.12-.4-.18-.59q-1.08.01-1.83,1.17c.67-.19,1.34-.38,2-.58ZM70.9,36.03c1.12.47,1.84.79,3.01.07-.94-.78-1.68-.97-3.01-.07ZM118.71,18.39c0-.21-.01-.42-.02-.63l-2.26.03-.02.49,2.3.11ZM53.57,78.94q-1.26-1.05-2.83-.31c1.13.12,1.77.19,2.83.31ZM74.71,31.5c0-.13.01-.26.02-.38l-1.51-.08c0,.13-.01.26-.02.38l1.51.08ZM66.25,48.34c.22-.33.47-.6.42-.67-.17-.24-.41-.47-.67-.58-.11-.05-.35.2-.53.31.23.28.46.55.78.94ZM120.1,27.7c-.03-.16-.05-.33-.08-.49-.52.08-1.04.16-1.56.24.03.16.05.32.08.48.52-.08,1.04-.16,1.56-.23ZM29.45,100.48c.15-.06.31-.11.46-.17-.14-.36-.28-.72-.41-1.08-.14.06-.41.15-.41.17.1.37.24.72.36,1.08ZM19.74,105.67c0,.22,0,.44,0,.67l1.4-.19c0-.13-.01-.27-.02-.4l-1.38-.07ZM117.35,30.12c.04-.16.08-.33.12-.49-.45-.1-.89-.2-1.34-.3-.03.13-.05.25-.08.38.43.14.86.28,1.3.42ZM66.48,63.17c.1-.15.22-.31.33-.47-.14-.07-.32-.23-.42-.19-.18.08-.3.27-.45.42.14.06.29.13.53.24ZM25.32,99.67c.46.11.7.25.89.19.15-.05.23-.32.35-.49-.15-.05-.33-.17-.46-.14-.2.05-.38.2-.77.44ZM71.22,39.38c-.08-.2-.16-.4-.24-.59-.33.14-.66.28-1,.42.07.14.15.41.19.4.35-.04.7-.14,1.04-.22ZM125.35,23.69c-.4-.17-.62-.35-.85-.34-.16,0-.45.26-.44.39.01.2.2.45.38.54.09.05.34-.21.91-.59ZM114.18,56.01c.26-.14.46-.24.66-.34-.1-.2-.23-.57-.31-.56-.26.03-.5.2-.75.32.12.18.24.36.4.59ZM111.51,59.46c-.06-.11-.13-.22-.19-.33-.31.17-.61.35-.92.52.06.11.12.21.19.32.31-.17.61-.35.92-.52Z"/>
    <path class="cls-1" d="M16.05,101.55c.47-.07,1.19,0,1.71-.3,1.1-.62,1.87-.08,2.41.66.45.61.66,1.47.75,2.25.03.21-.81.79-1.15.71-.84-.19-1.77-.49-2.39-1.05-.62-.56-.9-1.48-1.34-2.27Z"/>
    <path class="cls-1" d="M73.51,47.97c-1.62.93-1.66,4.06-4.36,2.28.63-2.64,1.48-3.16,4.36-2.28Z"/>
    <path class="cls-1" d="M83.19,23.72c2.97-1.43,5.58-.14,8.61.13-1.53.69-6.72.55-8.61-.13Z"/>
    <path class="cls-1" d="M48.28,85.37c-.21,1.11-.83,1.58-1.97,1.29-1.27-.32-2.55-.6-4.03-.95,1.58-.76,2.94-1.51,4.58-.52.4.24.98.17,1.47.25,0,0-.06-.07-.06-.07Z"/>
    <path class="cls-1" d="M35.63,92.15c.6-.69,1.04-1.37,1.66-1.83.36-.27,1-.16,1.52-.22-.04.54.1,1.22-.17,1.6-.65.92-1.54,1.5-3.01.45Z"/>
    <path class="cls-1" d="M32.01,93.76c1.82-.1,3.6-.28,5.12,1.25-2.16.94-3.51-.9-5.12-1.25Z"/>
    <path class="cls-1" d="M69.41,44.79c-1.85.61-3.14,1.05-4.86,1.62,1.69-2.44,1.85-2.49,4.86-1.62Z"/>
    <path class="cls-1" d="M70.95,32.33c-1.68.76-2.84,1.28-4.38,1.97.28-.67.34-1.16.62-1.4,1.04-.88,1.54-.95,3.76-.57Z"/>
    <path class="cls-1" d="M22.74,100.39l-5.07-.25c1.93-1.74,3.54.56,5.11-.4-.01.22-.03.44-.04.65Z"/>
    <path class="cls-1" d="M67.1,65.95c-1.75.91-1.81.9-3.07-.74,1.23-.42,2.07.17,3.07.74Z"/>
    <path class="cls-1" d="M29.36,102.01c.94-1,1.82-.7,3-.35-1.03,1-1.87,1.03-3,.35Z"/>
    <path class="cls-1" d="M70.9,36.03c1.32-.9,2.07-.71,3.01.07-1.16.72-1.89.4-3.01-.07Z"/>
    <path class="cls-1" d="M53.57,78.94c-1.06-.12-1.7-.18-2.83-.31q1.57-.75,2.83.31Z"/>
    <path class="cls-1" d="M74.71,31.5l-1.51-.08c0-.13.01-.26.02-.38l1.51.08c0,.13-.01.26-.02.38Z"/>
    <path class="cls-1" d="M66.25,48.34c-.32-.39-.55-.66-.78-.94.18-.11.42-.36.53-.31.26.11.51.34.67.58.05.07-.21.34-.42.67Z"/>
    <path class="cls-1" d="M29.45,100.48c-.13-.36-.26-.72-.36-1.08,0-.02.27-.11.41-.17.14.36.28.72.41,1.08-.15.06-.31.11-.46.17Z"/>
    <path class="cls-1" d="M19.74,105.67l1.38.07c0,.13.01.27.02.4l-1.4.19c0-.22,0-.44,0-.67Z"/>
    <path class="cls-1" d="M66.48,63.17c-.25-.11-.39-.17-.53-.24.15-.15.27-.34.45-.42.09-.04.27.12.42.19-.12.16-.23.33-.33.47Z"/>
    <path class="cls-1" d="M25.32,99.67c.39-.23.57-.39.77-.44.13-.03.31.09.46.14-.11.17-.19.45-.35.49-.19.06-.43-.08-.89-.19Z"/>
    <path class="cls-1" d="M71.22,39.38c-.35.08-.69.18-1.04.22-.05,0-.13-.26-.19-.4.33-.14.66-.28,1-.42.08.2.16.4.24.59Z"/>
  </g>
  <g>
    <path d="M87.29,109.95c-1.61.21-1.34,1.4-1.82,1.98-.74.87-.17,1.54-.11,2.35-.5.29-.99.57-1.56.9.18.35.35.67.58,1.09-.65.91-1.33,1.85-2.05,2.84.16.31.56.73.55,1.15,0,.35-.43.77-.78,1.01-1.04.7-1.12,1.81-1.17,2.84-.09,1.76-.4,2.06-2.03,1.56-.35-.11-.7-.17-1.06-.24-.03,0-.09.08-.2.2.12.73.86.79,1.35,1.13.78.55.85,1.23.16,1.88-.51.47-1.07.89-1.66,1.37.23.36.43.66.67,1.04-.5.33-1.33.32-1.23,1.34.03.26-1.07.64-1.76,1.03.6,1.36-.14,2.17-1.26,2.89-.52.33-1.03.81-1.34,1.34-.63,1.09-1.52.97-2.5.76-1.03-.22-2.07-.4-3.18-.61-.06-.56-.39-.91-1.36-1.21-.09.36-.17.71-.29,1.2-1.1-.22-2.33-.22-3.3-.72-1.57-.81-2.48-4.03-1.74-5.63.78-1.67,1.65-3.3,2.53-4.92.2-.38.62-.64.93-.95.31-.31.84-.6.88-.96.22-1.65,1.51-2.39,2.69-3.03,1.44-.78,2.17-2.1,3.04-3.3,1.34-1.85,2.59-3.77,3.85-5.68.44-.67.88-1.36,1.18-2.1.61-1.52,1.88-2.74,2.07-4.48.03-.31.53-.63.88-.83.29-.17.68-.16,1.17-.26-1.46-.94-1.45-.94-1.12-2.7.07-.36,0-.75,0-1.18.9-.49,2.24-.17,2.78-1.56-.93.11-1.98.93-2.58-.4-.56-1.24-.45-1.58.93-2.9.07-.98.18-1.77.16-2.56-.04-1.27-.25-2.54-.23-3.8.02-1.34-.58-2.83.72-3.96.09-.07-.06-.43-.12-.65q-.28-1.19,1.23-1.55c-.43-.26-.78-.48-1.3-.8,1.1-2.01,2.18-3.91,4.22-5.06.11-.06.23-.14.35-.15,2.16-.11,4.35-.5,6.38.59,2.08,1.11,2.78,3.01,2.83,5.25,0,.39.14.8.31,1.15.24.52.57.99.78,1.36-.25,1.05-.39,1.98-.71,2.85-.15.41-.59.88-.98.99-.78.22-1.63.22-2.46.3-.66.07-1.33.13-2.16.21,1.05,1.64,2.73,1.07,3.98,1.74-.12,1.34-1.02,2.08-2.15,2.85,1.74,1.32,2.42-.57,3.65-1.13.12.64.22,1.13.32,1.68.2-.09.4-.12.52-.24,1.14-1.1,2.11-2.46,3.43-3.26,2.11-1.28,4.43-2.25,6.71-3.22,1.03-.44,2.18-.53,2.68-1.78.08-.2.53-.25.81-.37.28-.12.63-.18.84-.38,1.08-1.04,2.07-2.19,3.21-3.17,1.08-.93,2.34-1.52,3.88-1.12,1.72.45,3.29,1.1,4.19,2.76.2.38.38.8.43,1.22.13,1.17.19,2.34.31,3.84-.29.13-.83.37-1.36.6,1.62,1.11,1.63,2.02-.02,3.04-1.16.72-2.31,1.48-3.54,2.03-.79.35-1.74.44-2.62.46-1.49.04-2.8.54-4.17,1.02-.66.23-1.61,1.08-2.36-.09-.1-.15-.61-.08-.92-.04-.31.03-.68.3-.92.2-1.67-.68-2.78.44-3.92,1.25-1.07.75-1.95.98-3.13.16-.56-.39-1.44-.39-2.17-.4-.19,0-.57.68-.54,1.02.04.48.24.58.88.27.76-.37.82.61,1.08,1.29-.7-.17-1.23-.37-1.77-.41-1.33-.11-2.48.67-2.59,2-.08.99-.49,1.28-1.35,1.5-.64.16-1.32.52-1.78.99-1.55,1.59-1.52,1.63-3.73,1.24.46.59.77.99,1.16,1.5-.48.63-1.68,1.21-.2,2.54ZM72.68,123.96c.79,1.49.93,1.51,2.32.4-.59-1.2-1.56-.14-2.32-.4ZM92.08,98.54c-.7.53-1.24.94-2.01,1.54.27.32.52.63.91,1.09.69-1.07,1.67-1.45,1.11-2.63ZM74.68,126.59c-.83-.77-1.8-.75-2.76-.68-.12,0-.22.37-.39.68h3.15ZM100.96,92.68c.02.18.04.35.06.53.9-.06,1.85.27,3.06-.7-1.33.07-2.22.12-3.11.17ZM90.48,96.73c.06-.17.12-.35.18-.52-.61-.24-1.23-.48-2.08-.81.28,1.58,1.15,1.34,1.9,1.33ZM117.44,91.45c-.58-.72-.96-1.24-1.86-.91.2.99.68,1.3,1.86.91ZM67.31,127.87c-1,.27-1.64.44-2.44.66q1.14.92,2.44-.66ZM80.92,116.32q-1.84.16-1.78,1.57c.6-.53,1.07-.95,1.78-1.57ZM99.77,97.2c.17.03.33.06.5.1.54-.42.53-.89-.25-1.45-.08.45-.17.9-.25,1.35ZM77.65,123.39q.69,1.06,1.68.38c-.62-.14-1.15-.26-1.68-.38ZM83.17,96.19c.03.18.06.35.09.53.53.18,1.03.23,1.59-.75-.77.1-1.22.16-1.68.22ZM70.42,121.73c-.1.15-.2.3-.3.45.25.48.57.8,1.56.31-.57-.34-.92-.55-1.26-.76ZM106.7,90.87c.04-.18.08-.35.12-.53-.3-.07-.6-.16-.91-.19-.03,0-.1.32-.15.49.31.07.62.15.93.22ZM86.16,101.99c-.01-.22-.02-.43-.04-.65-.45.03-.9.06-1.35.09,0,.17.01.33.02.5.45.02.91.04,1.36.07ZM114.41,89.79c-.02-.09-.03-.18-.05-.27-.37.05-.74.1-1.11.15l.06.33c.36-.07.73-.14,1.09-.21ZM79.86,98.32c.29-.32.48-.45.48-.57,0-.13-.24-.38-.3-.36-.18.07-.39.21-.44.37-.04.12.14.32.26.56ZM72.6,133.73c.02.11.03.22.05.33.4-.05.8-.11,1.2-.16l-.06-.37c-.4.07-.79.13-1.19.2ZM74.36,129.47c.15-.19.26-.31.33-.45.01-.02-.18-.21-.25-.2-.16.04-.29.15-.44.24.1.12.2.23.36.41ZM89.03,94.11c.1-.18.18-.31.25-.44-.14-.07-.31-.22-.43-.2-.13.03-.21.23-.32.36.14.08.29.16.49.28ZM87.68,101.96c.05.09.1.19.15.28.2-.13.41-.25.6-.39.02-.01-.08-.17-.12-.26-.21.13-.42.25-.63.38ZM77.16,119.79c.03-.09.05-.17.08-.26-.29-.09-.58-.18-.88-.28-.03.09-.06.19-.08.28.29.08.59.17.88.25Z"/>
    <path class="cls-1" d="M92.08,98.54c.56,1.18-.41,1.56-1.11,2.63-.39-.47-.64-.77-.91-1.09.78-.59,1.31-1,2.01-1.54Z"/>
    <path class="cls-1" d="M90.48,96.73c-.75,0-1.62.25-1.9-1.33.85.33,1.47.57,2.08.81-.06.17-.12.35-.18.52Z"/>
    <path class="cls-1" d="M86.16,101.99c-.45-.02-.91-.04-1.36-.07,0-.17-.01-.33-.02-.5.45-.03.9-.06,1.35-.09.01.22.02.43.04.65Z"/>
    <path class="cls-1" d="M89.03,94.11c-.21-.12-.35-.2-.49-.28.1-.13.19-.33.32-.36.12-.03.28.12.43.2-.08.13-.15.27-.25.44Z"/>
    <path class="cls-1" d="M87.68,101.96c.21-.13.42-.25.63-.38.04.09.14.25.12.26-.19.14-.4.27-.6.39-.05-.09-.1-.19-.15-.28Z"/>
  </g>
  <g>
    <path d="M343.31,96.95c-.93-.26-1.87-.52-2.96-.82-.04.16-.12.5-.26,1.08-.6-.37-1.14-.7-1.91-1.18.64-.36.99-.56,1.33-.75.42-.23.98-.5.63-1.04-.19-.29-.8-.44-1.21-.44-.7,0-1.4.21-2.11.27-1.76.16-3.44-1-3.97-2.78-.93.27-1.83.38-2.75-.27-.3-.22-1.09.18-1.62.38-.38.14-.79.68-1.03.6-1.53-.56-2.58.53-3.83.93-1.02.32-1.61.7-1.24,1.87.06.18-.09.43-.19.86-.49-.44-.84-.75-1.34-1.19-.07.41-.12.71-.19,1.1-.83.54-1.67,1.1-2.79.2-.33-.26-1.05-.04-1.51-.04-.73,1.63,1.08,1.81,1.41,3.03-1.23.37-2.41.73-3.59,1.09v.33c.74.29,1.47.58,2.11.83-.19,1.34-.36,2.58-.53,3.81-.11.05-.23.11-.34.16-.2-2.24-1.83-2.55-3.43-2.81q-.68-1.7.48-2.56c-.1-.29-.24-.6-.33-.93-.22-.89-.27-1.72.46-2.47.53-.55.95-1.21,1.42-1.81.15-.19.44-.34.46-.53.2-2.24,2.4-2.25,3.7-3.48-.41-.2-.84-.42-1.57-.78,1.44-1.06,2.88-1.44,4.47-1.88.19-1.02.78-1.67,2.07-1.26.62.2,1.18,0,1.52-.61.36-.67.94-.75,1.64-.82,1.47-.15,2.92-.58,4.38-.62,1.9-.05,3.81-.28,5.67.66,1.37.69,2.79,1.18,3.91,2.34.41.43,1.26.45,1.99.68-.73.83-1.33,1.51-2.04,2.32.54.38.99.7,1.37.97,1.19-.4.59-1.43,1.07-2.12,1.2.35,1.83,1.43,2.58,2.24.51.55.97,1.11,1.62,1.52.39.25.73.61,1.05.96.79.88.76,1.19-.18,2.01-.22.19-.5.3-.77.45,1.03,1.05,1.58-.06,2.44-.07.79.78,1.65,1.63,2.46,2.44-.76,1.45-2.04.78-3.04,1.16.19,1,.73,1.22,1.54.92.66-.25,1.29-.56,1.93-.84.75,1.34.63,1.61-.66,1.68-.4.02-.79,0-1.22,0,.07.24.08.43.14.45,1.31.39,2.07,1.04,1.44,2.57-.11.27.25.73.39,1.1-.73.42-1.42.81-2.1,1.2.31.71.79,1.29.75,1.83-.05.58-.55,1.15-.92,1.68-.57.82-1.21,1.6-1.77,2.43-.19.27-.29.63-.34.97-.15.96-.57,1.65-1.33,2.34-.53.48-.32,1.71-.75,2.42-.36.58-1.17.89-1.9,1.4.32.34.58.61.84.89q-.52,1.4-3.52,2.18c.43.32.77.57,1.35.99-.24.11-.4.2-.57.25-.51.14-1.05.22-1.55.39-.55.18-1.11.28-1.01,1.17.08.69-.58.96-1.22,1.03-1.82.18-3.64.35-5.45.53-.32.03-.63.12-1.16.23.94.93,2.05.21,2.85.78.19.57-.02,1.01-.63.85-1.28-.32-2.69.1-3.89-.91-.72-.61-1.79-.85-2.74-1.12-1.68-.47-2.94-1.47-4.02-2.78-.52-.63-1.07-1.27-2.07-1.11-.15.02-.37-.34-.79-.76.84.04,1.33.06,2.26.11-1.62-1.07-3.28-1.34-4.11-2.76.23,0,.53.07.69-.04.23-.18.37-.49.54-.74-.36-.04-.71-.08-1.07-.12-.04.32-.07.64-.11.95-2.34-.53-3.83-1.88-4.17-4.34-.02-.11-.01-.3-.07-.33-1.31-.55-1.13-2.17-2.37-2.97,1.29-.41,1.16,1.33,2.28.96-.42-.98-.99-1.77-2.12-2.28.73-.71,1.32-.86,2.02-.15.58.59,1.37,1.05,1.75,1.74.45.82,1.12.74,1.87.83.17.49.34.97.56,1.6.65.04,1.34.08,2.17.13,1.06,1.3,2.33,2.47,4.17,2.91.47.11.81.75,1.49,1.42.6.3,1.58.79,2.58,1.29,1.6-1.47,3.42-2.07,5.53-1.65,1-2.01,1.4-2.25,3.78-1.78,1.28.25,2.2-.4,3.08-1.05.28-.21.41-1.06.22-1.41-.66-1.23,0-1.92.7-2.82.81-1.05,1.38-2.29,1.98-3.48.44-.88.76-1.81,1.23-2.94-1.39-1.29-1.24-3.43-1.81-5.32-.14-.44.04-1.04.23-1.51.33-.83.22-1.5-.47-2.07.46-.17,1.04-.38.78-.95-.36-.8-1.18-.78-2.28-.85.66.78,1.11,1.31,1.55,1.84ZM331.2,123.22c-.59.24-1.16.59-1.78.71-.63.12-1.3.03-2.03.03.25.73.78,1.01,1.47,1.05.65.03,1.31-.03,1.95.07.49.08,1.16.2,1.39.54.59.87,1.28.75,2.02.45.69-.27,1.34-.65,1.99-.97q-1.06-3.06-4.21-2.99c-.34,0-.68-.04-1.14-.07.13.46.22.77.33,1.17ZM335.11,90.53c1.39.85,2.66,1.64,3.94,2.42.2.12.42.22.65.28.34.09.71.25,1.04.19.4-.07.76-.34,1.23-.57-2.07-1.63-4.53-2.46-6.85-2.32ZM322.43,118.52c-.48,1.22-.09,2.45.63,2.84,1.11.61,2.25,1.92,4.09.91-1.08-.52-1.94-1.02-2.86-1.34-1.13-.4-.84-1.77-1.86-2.41ZM336.17,120.55c.89.86,1.64.29,2.34.35.72.07,1.42.32,2.21.51.06-.51.11-.86.12-1.2,0-.08-.14-.17-.33-.37-1.24.66-2.81-.1-4.35.7ZM330.65,127.99c-.16-1.99-.35-2.13-1.86-1.49.61.49,1.15.92,1.86,1.49ZM325.33,88.42c-.9-.04-1.56.04-2.31.74,1.02.17,1.79.41,2.31-.74ZM321.76,89.92c0-.1,0-.19,0-.29h-.95v.29h.95ZM313.88,98.54c.06-.1.12-.2.17-.31-.26-.12-.52-.25-.78-.35,0,0-.09.19-.14.29.25.12.5.25.75.37ZM316.56,114.17c-.1.1-.2.21-.3.31.22.16.44.33.65.49.06-.07.12-.13.19-.2-.18-.2-.36-.4-.54-.6ZM316.77,117.94c0,.1-.01.2-.02.31.28.04.55.08.83.12,0-.14,0-.41,0-.41-.27-.03-.54-.02-.8-.02ZM336.37,92.25c-.12.18-.21.3-.29.42.1.06.2.18.28.16.14-.03.27-.14.4-.22-.11-.1-.22-.2-.39-.36ZM347.25,110.03c.01-.13.03-.27.04-.4l-.81-.09-.05.29c.27.07.55.13.82.2ZM318.95,94.26c.18-.21.36-.34.35-.43-.02-.13-.18-.31-.3-.34-.12-.03-.27.12-.41.19.1.16.21.33.37.58ZM348.44,103.57c.16-.07.26-.12.36-.16-.11-.12-.2-.26-.33-.33-.05-.03-.19.08-.29.12.09.13.18.26.26.37Z"/>
    <path d="M314.43,108.61c-.43.18-.85.38-1.28.55-.51.2-1.02.37-1.64.6-.35-1.3.24-2.73-1.64-3.34.82-.4,1.29-.62,1.93-.93-.65-.21-1.13-.36-1.71-.54,0-.31-.1-.68.02-.97.16-.37,1.64-1.09,2.19-1.13-.13.34-.25.64-.43,1.11,1.22-.3,1.96.1,2.36,1.25.4,1.15,1.56.72,2.41.92q-.86,1.51-2.17.75c-.05.62-.1,1.22-.15,1.81,0,0,.12-.08.12-.08Z"/>
    <path d="M314.43,108.61s-.12.08-.12.08c.55.47,1.11.95,1.89,1.62q-2.32-.42-1.77-1.7Z"/>
    <path d="M317.02,100.14c-.09.11-.16.25-.2.25-.15-.03-.29-.11-.44-.17.08-.11.18-.33.24-.32.14.03.27.15.41.24Z"/>
    <path class="cls-1" d="M331.2,123.22c-.11-.4-.2-.71-.33-1.17.47.03.81.08,1.14.07q3.15-.07,4.21,2.99c-.65.32-1.3.69-1.99.97-.74.29-1.43.42-2.02-.45-.23-.34-.9-.47-1.39-.54-.64-.1-1.3-.04-1.95-.07-.7-.04-1.23-.32-1.47-1.05.73,0,1.4.1,2.03-.03.62-.12,1.2-.47,1.78-.71Z"/>
    <path class="cls-1" d="M335.11,90.53c2.32-.13,4.78.69,6.85,2.32-.47.23-.83.5-1.23.57-.32.06-.7-.1-1.04-.19-.22-.06-.45-.16-.65-.28-1.28-.78-2.55-1.56-3.94-2.42Z"/>
    <path class="cls-1" d="M322.43,118.52c1.01.64.73,2,1.86,2.41.92.33,1.78.83,2.86,1.34-1.84,1.01-2.98-.3-4.09-.91-.71-.4-1.11-1.62-.63-2.84Z"/>
    <path class="cls-1" d="M336.17,120.55c1.54-.8,3.11-.04,4.35-.7.19.2.33.29.33.37-.01.34-.06.69-.12,1.2-.79-.19-1.49-.45-2.21-.51-.69-.06-1.45.5-2.34-.35Z"/>
    <path class="cls-1" d="M343.31,96.95c-.45-.53-.9-1.06-1.55-1.84,1.1.07,1.92.05,2.28.85.26.57-.33.79-.78.95,0,0,.06.04.06.04Z"/>
    <path class="cls-1" d="M330.65,127.99c-.71-.57-1.25-1-1.86-1.49,1.51-.65,1.69-.5,1.86,1.49Z"/>
    <path class="cls-1" d="M325.33,88.42c-.52,1.16-1.29.91-2.31.74.75-.7,1.41-.79,2.31-.74Z"/>
    <path class="cls-1" d="M318.62,120.12c.04-.32.07-.64.11-.95.36.04.71.08,1.07.12-.18.25-.31.56-.54.74-.15.12-.45.04-.69.04,0,0,.05.05.05.05Z"/>
    <path class="cls-1" d="M321.76,89.92h-.95v-.29h.95c0,.1,0,.19,0,.29Z"/>
    <path class="cls-1" d="M313.88,98.54c-.25-.12-.5-.25-.75-.37.05-.1.14-.29.14-.29.27.1.52.23.78.35-.06.1-.12.2-.17.31Z"/>
    <path class="cls-1" d="M316.56,114.17c.18.2.36.4.54.6-.06.07-.12.13-.19.2-.22-.16-.44-.33-.65-.49.1-.1.2-.21.3-.31Z"/>
    <path class="cls-1" d="M316.77,117.94c.27,0,.54,0,.8.02.01,0,0,.27,0,.41-.28-.04-.55-.08-.83-.12,0-.1.01-.2.02-.31Z"/>
    <path class="cls-1" d="M336.37,92.25c.17.16.28.26.39.36-.13.08-.26.19-.4.22-.08.02-.19-.1-.28-.16.08-.12.17-.24.29-.42Z"/>
    <path class="cls-1" d="M347.25,110.03c-.27-.07-.55-.13-.82-.2l.05-.29.81.09c-.01.13-.03.27-.04.4Z"/>
    <path class="cls-1" d="M318.95,94.26c-.16-.25-.26-.41-.37-.58.14-.07.29-.22.41-.19.13.03.28.2.3.34.02.09-.17.22-.35.43Z"/>
    <path class="cls-1" d="M348.44,103.57c-.08-.12-.17-.25-.26-.37.1-.04.23-.15.29-.12.13.08.22.22.33.33-.1.05-.2.09-.36.16Z"/>
  </g>
</svg>